<svg width="21" height="21" viewBox="0 0 21 21" fill="none" xmlns="http://www.w3.org/2000/svg">
<g clip-path="url(#clip0_99_2372)">
<path d="M9.42383 17.5664C9.57011 17.8198 9.78051 18.0301 10.0339 18.1764C10.2872 18.3227 10.5746 18.3997 10.8672 18.3997C11.1597 18.3997 11.4471 18.3227 11.7005 18.1764C11.9538 18.0301 12.1642 17.8198 12.3105 17.5664" stroke="#9CA3AF" stroke-width="2" stroke-linecap="round" stroke-linejoin="round"/>
<path d="M3.58491 12.8384C3.47605 12.9577 3.40421 13.1061 3.37812 13.2655C3.35204 13.4249 3.37284 13.5884 3.438 13.7362C3.50316 13.884 3.60986 14.0097 3.74512 14.098C3.88039 14.1862 4.03839 14.2333 4.19991 14.2334H17.5332C17.6947 14.2335 17.8528 14.1866 17.9881 14.0985C18.1235 14.0104 18.2303 13.8849 18.2957 13.7372C18.361 13.5895 18.382 13.426 18.3561 13.2666C18.3302 13.1071 18.2586 12.9587 18.1499 12.8392C17.0416 11.6967 15.8666 10.4826 15.8666 6.7334C15.8666 5.40732 15.3398 4.13555 14.4021 3.19786C13.4644 2.26018 12.1927 1.7334 10.8666 1.7334C9.5405 1.7334 8.26873 2.26018 7.33104 3.19786C6.39336 4.13555 5.86658 5.40732 5.86658 6.7334C5.86658 10.4826 4.69075 11.6967 3.58491 12.8384Z" stroke="#9CA3AF" stroke-width="2" stroke-linecap="round" stroke-linejoin="round"/>
</g>
<defs>
<clipPath id="clip0_99_2372">
<rect width="20" height="20" fill="white" transform="translate(0.867188 0.0664062)"/>
</clipPath>
</defs>
</svg>
