<svg width="20" height="20" viewBox="0 0 20 20" fill="none" xmlns="http://www.w3.org/2000/svg">
<path d="M8.55664 17.5C8.70293 17.7533 8.91332 17.9637 9.16668 18.11C9.42003 18.2563 9.70743 18.3333 9.99997 18.3333C10.2925 18.3333 10.5799 18.2563 10.8333 18.11C11.0866 17.9637 11.297 17.7533 11.4433 17.5" stroke="#374151" stroke-width="2" stroke-linecap="round" stroke-linejoin="round"/>
<path d="M2.71833 12.771C2.60947 12.8903 2.53763 13.0387 2.51155 13.1981C2.48547 13.3575 2.50627 13.5211 2.57142 13.6688C2.63658 13.8166 2.74328 13.9423 2.87855 14.0306C3.01381 14.1188 3.17182 14.1659 3.33333 14.166H16.6667C16.8282 14.1661 16.9862 14.1192 17.1216 14.0311C17.2569 13.943 17.3637 13.8175 17.4291 13.6698C17.4944 13.5221 17.5154 13.3586 17.4895 13.1992C17.4637 13.0398 17.392 12.8913 17.2833 12.7718C16.175 11.6293 15 10.4152 15 6.66602C15 5.33993 14.4732 4.06816 13.5355 3.13048C12.5979 2.1928 11.3261 1.66602 10 1.66602C8.67392 1.66602 7.40215 2.1928 6.46447 3.13048C5.52679 4.06816 5 5.33993 5 6.66602C5 10.4152 3.82417 11.6293 2.71833 12.771Z" stroke="#374151" stroke-width="2" stroke-linecap="round" stroke-linejoin="round"/>
</svg>
