<svg width="20" height="20" viewBox="0 0 20 20" fill="none" xmlns="http://www.w3.org/2000/svg">
<g clip-path="url(#clip0_412_5608)">
<path d="M1.47461 0.5H18.5068L18.6084 0.504883C19.1106 0.554275 19.4871 0.965731 19.4873 1.43945V18.5479C19.4871 19.0537 19.0593 19.4873 18.5068 19.4873H1.47461C0.924255 19.4871 0.500158 19.0564 0.5 18.5479V1.43945C0.500267 0.93166 0.924516 0.500158 1.47461 0.5ZM2.46094 17.5322H6.42871V6.99512H2.46094V17.5322ZM13.4756 6.75488C12.5062 6.75492 11.7152 7.07198 11.1309 7.51758V6.99512H7.28809V17.5322H11.2471V12.3135C11.2471 11.7005 11.3104 11.2008 11.4961 10.8643C11.5824 10.7078 11.6933 10.5918 11.8398 10.5107C11.9893 10.4281 12.2057 10.3652 12.5264 10.3652C12.8261 10.3652 13.0069 10.4343 13.1221 10.5146C13.2384 10.5958 13.331 10.7192 13.4023 10.8994C13.5564 11.2886 13.5684 11.8199 13.5684 12.3945V17.5322H17.5283V17.0332L17.5293 11.7979C17.5293 10.5022 17.3947 9.23962 16.7998 8.2959C16.1715 7.29943 15.0981 6.75488 13.4756 6.75488ZM4.44434 2.25293C3.21568 2.25314 2.22656 3.24774 2.22656 4.4707C2.22665 5.69379 3.21427 6.69022 4.44434 6.69043C5.66931 6.69043 6.66397 5.69503 6.66406 4.4707C6.66406 3.24682 5.66988 2.25293 4.44434 2.25293Z" fill="black" stroke="#4B5563"/>
</g>
<defs>
<clipPath id="clip0_412_5608">
<rect width="19.9875" height="19.9875" fill="white"/>
</clipPath>
</defs>
</svg>
