<svg width="20" height="20" viewBox="0 0 20 20" fill="none" xmlns="http://www.w3.org/2000/svg">
<g clip-path="url(#clip0_412_5599)">
<path d="M11.5194 13.7984C11.6914 13.8774 11.8851 13.8955 12.0688 13.8496C12.2524 13.8037 12.4149 13.6967 12.5296 13.5461L12.8252 13.1588C12.9804 12.952 13.1815 12.7841 13.4128 12.6684C13.6441 12.5528 13.8991 12.4926 14.1577 12.4926H16.6562C17.0979 12.4926 17.5216 12.6681 17.8339 12.9804C18.1463 13.2928 18.3218 13.7165 18.3218 14.1582V16.6566C18.3218 17.0984 18.1463 17.522 17.8339 17.8344C17.5216 18.1468 17.0979 18.3223 16.6562 18.3223C12.6804 18.3223 8.86747 16.7429 6.05618 13.9316C3.24489 11.1203 1.66553 7.3074 1.66553 3.33164C1.66553 2.88989 1.84101 2.46623 2.15338 2.15387C2.46574 1.8415 2.8894 1.66602 3.33115 1.66602H5.82959C6.27134 1.66602 6.695 1.8415 7.00736 2.15387C7.31973 2.46623 7.49521 2.88989 7.49521 3.33164V5.83008C7.49521 6.08866 7.43501 6.34369 7.31937 6.57497C7.20373 6.80625 7.03583 7.00743 6.82896 7.16258L6.43921 7.4549C6.28632 7.57164 6.17855 7.73771 6.13422 7.92489C6.0899 8.11208 6.11173 8.30884 6.19603 8.48175C7.33422 10.7935 9.20616 12.6631 11.5194 13.7984Z" stroke="#4B5563" stroke-width="2" stroke-linecap="round" stroke-linejoin="round"/>
</g>
<defs>
<clipPath id="clip0_412_5599">
<rect width="19.9875" height="19.9875" fill="white"/>
</clipPath>
</defs>
</svg>
