<svg width="20" height="20" viewBox="0 0 20 20" fill="none" xmlns="http://www.w3.org/2000/svg">
<g clip-path="url(#clip0_445_1036)">
<path d="M9.99377 15.8232V18.3217" stroke="#374151" stroke-width="2" stroke-linecap="round" stroke-linejoin="round"/>
<path d="M15.8234 8.32812V9.99375C15.8234 11.5399 15.2092 13.0227 14.116 14.116C13.0227 15.2092 11.5399 15.8234 9.99375 15.8234C8.44762 15.8234 6.96482 15.2092 5.87154 14.116C4.77826 13.0227 4.16406 11.5399 4.16406 9.99375V8.32812" stroke="#374151" stroke-width="2" stroke-linecap="round" stroke-linejoin="round"/>
<path d="M12.4922 4.16396C12.4922 2.78412 11.3736 1.66553 9.9938 1.66553C8.61395 1.66553 7.49536 2.78412 7.49536 4.16396V9.99365C7.49536 11.3735 8.61395 12.4921 9.9938 12.4921C11.3736 12.4921 12.4922 11.3735 12.4922 9.99365V4.16396Z" stroke="#374151" stroke-width="2" stroke-linecap="round" stroke-linejoin="round"/>
</g>
<defs>
<clipPath id="clip0_445_1036">
<rect width="19.9875" height="19.9875" fill="white"/>
</clipPath>
</defs>
</svg>
