<svg width="21" height="21" viewBox="0 0 21 21" fill="none" xmlns="http://www.w3.org/2000/svg">
<g clip-path="url(#clip0_321_9854)">
<path d="M13.425 6.82422C14.7503 6.82422 16.0213 7.35067 16.9584 8.28777C17.8955 9.22487 18.4219 10.4958 18.4219 11.8211V17.6508H15.0907V11.8211C15.0907 11.3793 14.9152 10.9557 14.6028 10.6433C14.2904 10.331 13.8668 10.1555 13.425 10.1555C12.9833 10.1555 12.5596 10.331 12.2473 10.6433C11.9349 10.9557 11.7594 11.3793 11.7594 11.8211V17.6508H8.42816V11.8211C8.42816 10.4958 8.95462 9.22487 9.89171 8.28777C10.8288 7.35067 12.0998 6.82422 13.425 6.82422Z" stroke="#2563EB" stroke-width="2" stroke-linecap="round" stroke-linejoin="round"/>
<path d="M5.09694 7.65723H1.76569V17.651H5.09694V7.65723Z" stroke="#2563EB" stroke-width="2" stroke-linecap="round" stroke-linejoin="round"/>
<path d="M3.43131 5.15937C4.35121 5.15937 5.09694 4.41365 5.09694 3.49375C5.09694 2.57385 4.35121 1.82812 3.43131 1.82812C2.51141 1.82812 1.76569 2.57385 1.76569 3.49375C1.76569 4.41365 2.51141 5.15937 3.43131 5.15937Z" stroke="#2563EB" stroke-width="2" stroke-linecap="round" stroke-linejoin="round"/>
</g>
<defs>
<clipPath id="clip0_321_9854">
<rect width="19.9875" height="19.9875" fill="white" transform="translate(0.100037 0.162109)"/>
</clipPath>
</defs>
</svg>
