<svg width="20" height="20" viewBox="0 0 20 20" fill="none" xmlns="http://www.w3.org/2000/svg">
<path d="M1.71807 10.2835C1.64866 10.0966 1.64866 9.89089 1.71807 9.70391C2.39406 8.06481 3.54153 6.66334 5.01498 5.67717C6.48844 4.69101 8.22154 4.16455 9.99456 4.16455C11.7676 4.16455 13.5007 4.69101 14.9741 5.67717C16.4476 6.66334 17.5951 8.06481 18.2711 9.70391C18.3405 9.89089 18.3405 10.0966 18.2711 10.2835C17.5951 11.9226 16.4476 13.3241 14.9741 14.3103C13.5007 15.2964 11.7676 15.8229 9.99456 15.8229C8.22154 15.8229 6.48844 15.2964 5.01498 14.3103C3.54153 13.3241 2.39406 11.9226 1.71807 10.2835Z" stroke="#2563EB" stroke-width="2" stroke-linecap="round" stroke-linejoin="round"/>
<path d="M9.99453 12.492C11.3744 12.492 12.493 11.3734 12.493 9.99355C12.493 8.61371 11.3744 7.49512 9.99453 7.49512C8.61468 7.49512 7.49609 8.61371 7.49609 9.99355C7.49609 11.3734 8.61468 12.492 9.99453 12.492Z" stroke="#2563EB" stroke-width="2" stroke-linecap="round" stroke-linejoin="round"/>
</svg>
