<svg width="14" height="14" viewBox="0 0 14 14" fill="none" xmlns="http://www.w3.org/2000/svg">
<g clip-path="url(#clip0_196_509)">
<path d="M12.7049 5.82806C12.9711 7.13432 12.7814 8.49234 12.1675 9.67567C11.5536 10.859 10.5525 11.7961 9.33132 12.3307C8.11011 12.8653 6.74253 12.9651 5.45666 12.6134C4.17078 12.2617 3.04433 11.4798 2.26516 10.3981C1.48599 9.31645 1.1012 8.00034 1.17495 6.66928C1.2487 5.33823 1.77653 4.07268 2.67043 3.0837C3.56434 2.09471 4.77027 1.44206 6.08712 1.2346C7.40398 1.02713 8.75216 1.27738 9.90684 1.94361" stroke="#16A34A" stroke-width="2" stroke-linecap="round" stroke-linejoin="round"/>
<path d="M5.24609 6.41074L6.99453 8.15918L12.8227 2.33105" stroke="#16A34A" stroke-width="2" stroke-linecap="round" stroke-linejoin="round"/>
</g>
<defs>
<clipPath id="clip0_196_509">
<rect width="13.9875" height="13.9875" fill="white"/>
</clipPath>
</defs>
</svg>
