<svg width="21" height="20" viewBox="0 0 21 20" fill="none" xmlns="http://www.w3.org/2000/svg">
<g clip-path="url(#clip0_99_2926)">
<path d="M9.07812 4.22991C11.0193 3.99858 12.9828 4.40893 14.6688 5.39829C16.3549 6.38764 17.6708 7.90164 18.4156 9.70908C18.4851 9.89617 18.4851 10.102 18.4156 10.2891C18.1094 11.0316 17.7046 11.7295 17.2123 12.3641" stroke="#9CA3AF" stroke-width="2" stroke-linecap="round" stroke-linejoin="round"/>
<path d="M11.8715 11.7987C11.4 12.2541 10.7685 12.5061 10.113 12.5004C9.45755 12.4947 8.83052 12.2317 8.367 11.7682C7.90348 11.3047 7.64056 10.6777 7.63486 10.0222C7.62916 9.36668 7.88115 8.73518 8.33655 8.26367" stroke="#9CA3AF" stroke-width="2" stroke-linecap="round" stroke-linejoin="round"/>
<path d="M14.7004 14.5822C13.5949 15.237 12.3616 15.6463 11.084 15.7825C9.80642 15.9186 8.5145 15.7784 7.29589 15.3712C6.07729 14.9641 4.96053 14.2996 4.02138 13.4228C3.08223 12.546 2.34266 11.4775 1.85287 10.2897C1.78342 10.1026 1.78342 9.89676 1.85287 9.70966C2.59173 7.91787 3.89176 6.41403 5.55787 5.42383" stroke="#9CA3AF" stroke-width="2" stroke-linecap="round" stroke-linejoin="round"/>
<path d="M1.80078 1.66699L18.4674 18.3337" stroke="#9CA3AF" stroke-width="2" stroke-linecap="round" stroke-linejoin="round"/>
</g>
<defs>
<clipPath id="clip0_99_2926">
<rect width="20" height="20" fill="white" transform="translate(0.134766)"/>
</clipPath>
</defs>
</svg>
