<svg width="19" height="20" viewBox="0 0 19 20" fill="none" xmlns="http://www.w3.org/2000/svg">
<path d="M12.3258 4.99693L5.31849 12.1475C5.00606 12.4599 4.83054 12.8836 4.83054 13.3255C4.83054 13.7673 5.00606 14.1911 5.31849 14.5035C5.63092 14.8159 6.05466 14.9914 6.4965 14.9914C6.93834 14.9914 7.36209 14.8159 7.67451 14.5035L14.6818 7.35296C15.3065 6.72821 15.6575 5.88088 15.6575 4.99735C15.6575 4.11383 15.3065 3.26649 14.6818 2.64174C14.0571 2.01699 13.2097 1.66602 12.3262 1.66602C11.4427 1.66602 10.5953 2.01699 9.97058 2.64174L2.99244 9.76312C2.52224 10.2257 2.14827 10.7769 1.89213 11.3847C1.63599 11.9926 1.50273 12.6451 1.50004 13.3048C1.49736 13.9644 1.6253 14.618 1.87648 15.2279C2.12767 15.8378 2.49713 16.392 2.96355 16.8584C3.42997 17.3248 3.98413 17.6943 4.59406 17.9455C5.20398 18.1967 5.8576 18.3246 6.51722 18.3219C7.17684 18.3192 7.8294 18.186 8.43726 17.9298C9.04512 17.6737 9.59625 17.2997 10.0589 16.8295L17.037 9.70815" stroke="#6B7280" stroke-width="2" stroke-linecap="round" stroke-linejoin="round"/>
</svg>
