<svg width="16" height="16" viewBox="0 0 16 16" fill="none" xmlns="http://www.w3.org/2000/svg">
<g clip-path="url(#clip0_321_9890)">
<path d="M6.65779 13.3279C6.65773 13.4518 6.69218 13.5732 6.75728 13.6785C6.82237 13.7839 6.91554 13.869 7.02631 13.9244L8.35913 14.5908C8.46075 14.6416 8.57367 14.6655 8.68716 14.6604C8.80065 14.6552 8.91094 14.6212 9.00756 14.5614C9.10418 14.5016 9.18391 14.4182 9.2392 14.3189C9.29448 14.2197 9.32347 14.1079 9.32342 13.9943V9.32949C9.32357 8.99921 9.44634 8.68075 9.66795 8.43584L14.4814 3.11192C14.5677 3.01633 14.6244 2.89779 14.6447 2.77064C14.6651 2.64349 14.6481 2.51318 14.596 2.39545C14.5438 2.27773 14.4586 2.17764 14.3508 2.10728C14.2429 2.03693 14.117 1.99933 13.9883 1.99902H1.99295C1.86407 1.99907 1.73797 2.03649 1.62992 2.10674C1.52188 2.17699 1.43652 2.27707 1.38419 2.39484C1.33186 2.51262 1.3148 2.64304 1.33509 2.77032C1.35537 2.89759 1.41213 3.01625 1.49847 3.11192L6.31326 8.43584C6.53486 8.68075 6.65764 8.99921 6.65779 9.32949V13.3279Z" stroke="black" stroke-width="2" stroke-linecap="round" stroke-linejoin="round"/>
</g>
<defs>
<clipPath id="clip0_321_9890">
<rect width="15.9937" height="15.9937" fill="white" transform="translate(-0.00622559)"/>
</clipPath>
</defs>
</svg>
