<svg width="14" height="14" viewBox="0 0 14 14" fill="none" xmlns="http://www.w3.org/2000/svg">
<g clip-path="url(#clip0_187_1442)">
<path d="M11.657 7.57673C11.657 10.4908 9.61719 11.9478 7.19269 12.7929C7.06573 12.8359 6.92782 12.8339 6.8022 12.7871C4.37187 11.9478 2.33203 10.4908 2.33203 7.57673V3.49704C2.33203 3.34247 2.39343 3.19423 2.50273 3.08493C2.61203 2.97563 2.76027 2.91423 2.91484 2.91423C4.08047 2.91423 5.5375 2.21485 6.55159 1.32898C6.67506 1.22349 6.83213 1.16553 6.99453 1.16553C7.15693 1.16553 7.314 1.22349 7.43747 1.32898C8.45739 2.22068 9.90859 2.91423 11.0742 2.91423C11.2288 2.91423 11.377 2.97563 11.4863 3.08493C11.5956 3.19423 11.657 3.34247 11.657 3.49704V7.57673Z" stroke="#4B5563" stroke-width="2" stroke-linecap="round" stroke-linejoin="round"/>
</g>
<defs>
<clipPath id="clip0_187_1442">
<rect width="13.9875" height="13.9875" fill="white"/>
</clipPath>
</defs>
</svg>
