<svg width="16" height="16" viewBox="0 0 16 16" fill="none" xmlns="http://www.w3.org/2000/svg">
<g clip-path="url(#clip0_485_3108)">
<path d="M7.99689 1.33301V14.6611" stroke="#6B7280" stroke-width="2" stroke-linecap="round" stroke-linejoin="round"/>
<path d="M11.3289 3.33203H6.33083C5.71224 3.33203 5.11898 3.57777 4.68156 4.01518C4.24415 4.4526 3.99841 5.04586 3.99841 5.66445C3.99841 6.28305 4.24415 6.87631 4.68156 7.31372C5.11898 7.75114 5.71224 7.99687 6.33083 7.99687H9.66287C10.2815 7.99687 10.8747 8.24261 11.3121 8.68003C11.7496 9.11744 11.9953 9.7107 11.9953 10.3293C11.9953 10.9479 11.7496 11.5412 11.3121 11.9786C10.8747 12.416 10.2815 12.6617 9.66287 12.6617H3.99841" stroke="#6B7280" stroke-width="2" stroke-linecap="round" stroke-linejoin="round"/>
</g>
<defs>
<clipPath id="clip0_485_3108">
<rect width="15.9937" height="15.9937" fill="white"/>
</clipPath>
</defs>
</svg>
