<svg width="40" height="40" viewBox="0 0 40 40" fill="none" xmlns="http://www.w3.org/2000/svg">
<path d="M24.9965 3.33301H9.99883C9.11491 3.33301 8.2672 3.68414 7.64217 4.30917C7.01715 4.93419 6.66602 5.7819 6.66602 6.66582V33.3283C6.66602 34.2122 7.01715 35.0599 7.64217 35.685C8.2672 36.31 9.11491 36.6611 9.99883 36.6611H29.9957C30.8796 36.6611 31.7273 36.31 32.3524 35.685C32.9774 35.0599 33.3285 34.2122 33.3285 33.3283V11.665L24.9965 3.33301Z" stroke="#D1D5DB" stroke-width="2" stroke-linecap="round" stroke-linejoin="round"/>
<path d="M23.3301 3.33301V9.99863C23.3301 10.8825 23.6812 11.7303 24.3062 12.3553C24.9313 12.9803 25.779 13.3314 26.6629 13.3314H33.3285" stroke="#D1D5DB" stroke-width="2" stroke-linecap="round" stroke-linejoin="round"/>
<path d="M16.6654 14.998H13.332" stroke="#D1D5DB" stroke-width="2" stroke-linecap="round" stroke-linejoin="round"/>
<path d="M26.6633 21.6631H13.332" stroke="#D1D5DB" stroke-width="2" stroke-linecap="round" stroke-linejoin="round"/>
<path d="M26.6633 28.3291H13.332" stroke="#D1D5DB" stroke-width="2" stroke-linecap="round" stroke-linejoin="round"/>
</svg>
