<svg width="17" height="17" viewBox="0 0 17 17" fill="none" xmlns="http://www.w3.org/2000/svg">
<g clip-path="url(#clip0_100_4101)">
<path d="M13.9831 6.73324C13.9831 10.0619 10.2904 13.5286 9.05041 14.5992C8.93489 14.6861 8.79427 14.7331 8.64974 14.7331C8.50521 14.7331 8.36459 14.6861 8.24907 14.5992C7.00907 13.5286 3.31641 10.0619 3.31641 6.73324C3.31641 5.31875 3.87831 3.96219 4.8785 2.962C5.8787 1.96181 7.23525 1.3999 8.64974 1.3999C10.0642 1.3999 11.4208 1.96181 12.421 2.962C13.4212 3.96219 13.9831 5.31875 13.9831 6.73324Z" stroke="#6B7280" stroke-width="2" stroke-linecap="round" stroke-linejoin="round"/>
<path d="M8.65039 8.7334C9.75496 8.7334 10.6504 7.83797 10.6504 6.7334C10.6504 5.62883 9.75496 4.7334 8.65039 4.7334C7.54582 4.7334 6.65039 5.62883 6.65039 6.7334C6.65039 7.83797 7.54582 8.7334 8.65039 8.7334Z" stroke="#6B7280" stroke-width="2" stroke-linecap="round" stroke-linejoin="round"/>
</g>
<defs>
<clipPath id="clip0_100_4101">
<rect width="16" height="16" fill="white" transform="translate(0.650391 0.0666504)"/>
</clipPath>
</defs>
</svg>
