<svg width="19" height="18" viewBox="0 0 19 18" fill="none" xmlns="http://www.w3.org/2000/svg">
<path d="M7.6622 15.1578C7.66213 15.3126 7.70518 15.4643 7.78653 15.596C7.86788 15.7276 7.9843 15.834 8.12275 15.9032L9.78837 16.736C9.91537 16.7995 10.0565 16.8294 10.1983 16.823C10.3401 16.8165 10.478 16.774 10.5987 16.6993C10.7195 16.6246 10.8191 16.5203 10.8882 16.3963C10.9573 16.2722 10.9935 16.1326 10.9934 15.9906V10.1609C10.9936 9.74818 11.1471 9.3502 11.424 9.04414L17.4394 2.3908C17.5472 2.27134 17.6181 2.1232 17.6435 1.9643C17.6689 1.8054 17.6478 1.64254 17.5826 1.49542C17.5174 1.3483 17.411 1.22321 17.2762 1.13529C17.1414 1.04737 16.9841 1.00038 16.8231 1H1.83251C1.67145 1.00006 1.51386 1.04682 1.37884 1.13461C1.24381 1.22241 1.13714 1.34747 1.07174 1.49466C1.00635 1.64185 0.985031 1.80484 1.01038 1.96389C1.03573 2.12294 1.10666 2.27123 1.21457 2.3908L7.23164 9.04414C7.50858 9.3502 7.66201 9.74818 7.6622 10.1609V15.1578Z" stroke="#6B7280" stroke-width="2" stroke-linecap="round" stroke-linejoin="round"/>
</svg>
