<svg width="19" height="20" viewBox="0 0 19 20" fill="none" xmlns="http://www.w3.org/2000/svg">
<path d="M10.8599 13.8724C11.032 13.9515 11.2259 13.9695 11.4096 13.9236C11.5934 13.8777 11.756 13.7706 11.8707 13.6199L12.1665 13.2324C12.3218 13.0254 12.5231 12.8574 12.7545 12.7417C12.9859 12.626 13.2411 12.5658 13.4999 12.5658H15.9999C16.4419 12.5658 16.8658 12.7414 17.1784 13.0539C17.491 13.3665 17.6665 13.7904 17.6665 14.2324V16.7324C17.6665 17.1745 17.491 17.5984 17.1784 17.9109C16.8658 18.2235 16.4419 18.3991 15.9999 18.3991C12.0216 18.3991 8.20632 16.8187 5.39328 14.0057C2.58023 11.1926 0.999878 7.37734 0.999878 3.39909C0.999878 2.95706 1.17547 2.53314 1.48803 2.22058C1.80059 1.90802 2.22452 1.73242 2.66654 1.73242H5.16654C5.60857 1.73242 6.0325 1.90802 6.34506 2.22058C6.65762 2.53314 6.83321 2.95706 6.83321 3.39909V5.89909C6.83321 6.15783 6.77297 6.41302 6.65726 6.64444C6.54154 6.87587 6.37354 7.07718 6.16654 7.23242L5.77654 7.52492C5.62356 7.64174 5.51573 7.80791 5.47137 7.99521C5.42701 8.18252 5.44886 8.3794 5.53321 8.55242C6.67211 10.8656 8.54523 12.7364 10.8599 13.8724Z" stroke="#9CA3AF" stroke-width="2" stroke-linecap="round" stroke-linejoin="round"/>
</svg>
