<svg width="17" height="17" viewBox="0 0 17 17" fill="none" xmlns="http://www.w3.org/2000/svg">
<g clip-path="url(#clip0_100_4085)">
<path d="M12.3333 1.3999H4.33333C3.59695 1.3999 3 1.99686 3 2.73324V13.3999C3 14.1363 3.59695 14.7332 4.33333 14.7332H12.3333C13.0697 14.7332 13.6667 14.1363 13.6667 13.3999V2.73324C13.6667 1.99686 13.0697 1.3999 12.3333 1.3999Z" stroke="#6B7280" stroke-width="2" stroke-linecap="round" stroke-linejoin="round"/>
<path d="M6.33398 14.7333V12.0667H10.334V14.7333" stroke="#6B7280" stroke-width="2" stroke-linecap="round" stroke-linejoin="round"/>
<path d="M5.66797 4.06665H5.67464" stroke="#6B7280" stroke-width="2" stroke-linecap="round" stroke-linejoin="round"/>
<path d="M11 4.06665H11.0067" stroke="#6B7280" stroke-width="2" stroke-linecap="round" stroke-linejoin="round"/>
<path d="M8.33398 4.06665H8.34065" stroke="#6B7280" stroke-width="2" stroke-linecap="round" stroke-linejoin="round"/>
<path d="M8.33398 6.7334H8.34065" stroke="#6B7280" stroke-width="2" stroke-linecap="round" stroke-linejoin="round"/>
<path d="M8.33398 9.3999H8.34065" stroke="#6B7280" stroke-width="2" stroke-linecap="round" stroke-linejoin="round"/>
<path d="M11 6.7334H11.0067" stroke="#6B7280" stroke-width="2" stroke-linecap="round" stroke-linejoin="round"/>
<path d="M11 9.3999H11.0067" stroke="#6B7280" stroke-width="2" stroke-linecap="round" stroke-linejoin="round"/>
<path d="M5.66797 6.7334H5.67464" stroke="#6B7280" stroke-width="2" stroke-linecap="round" stroke-linejoin="round"/>
<path d="M5.66797 9.3999H5.67464" stroke="#6B7280" stroke-width="2" stroke-linecap="round" stroke-linejoin="round"/>
</g>
<defs>
<clipPath id="clip0_100_4085">
<rect width="16" height="16" fill="white" transform="translate(0.333984 0.0666504)"/>
</clipPath>
</defs>
</svg>
