<svg width="14" height="14" viewBox="0 0 14 14" fill="none" xmlns="http://www.w3.org/2000/svg">
<g clip-path="url(#clip0_187_1411)">
<path d="M6.99414 4.07959V12.239" stroke="#4B5563" stroke-width="2" stroke-linecap="round" stroke-linejoin="round"/>
<path d="M1.74883 10.4907C1.59426 10.4907 1.44602 10.4293 1.33672 10.32C1.22742 10.2107 1.16602 10.0625 1.16602 9.90791V2.33135C1.16602 2.17678 1.22742 2.02854 1.33672 1.91924C1.44602 1.80994 1.59426 1.74854 1.74883 1.74854H4.66289C5.28118 1.74854 5.87414 1.99415 6.31133 2.43134C6.74853 2.86854 6.99414 3.4615 6.99414 4.07979C6.99414 3.4615 7.23975 2.86854 7.67695 2.43134C8.11414 1.99415 8.7071 1.74854 9.32539 1.74854H12.2395C12.394 1.74854 12.5423 1.80994 12.6516 1.91924C12.7609 2.02854 12.8223 2.17678 12.8223 2.33135V9.90791C12.8223 10.0625 12.7609 10.2107 12.6516 10.32C12.5423 10.4293 12.394 10.4907 12.2395 10.4907H8.74258C8.27886 10.4907 7.83414 10.6749 7.50625 11.0028C7.17835 11.3307 6.99414 11.7754 6.99414 12.2392C6.99414 11.7754 6.80993 11.3307 6.48203 11.0028C6.15414 10.6749 5.70942 10.4907 5.2457 10.4907H1.74883Z" stroke="#4B5563" stroke-width="2" stroke-linecap="round" stroke-linejoin="round"/>
</g>
<defs>
<clipPath id="clip0_187_1411">
<rect width="13.9875" height="13.9875" fill="white"/>
</clipPath>
</defs>
</svg>
