<svg width="14" height="14" viewBox="0 0 14 14" fill="none" xmlns="http://www.w3.org/2000/svg">
<g clip-path="url(#clip0_187_1417)">
<path d="M6.99414 12.8218C10.2129 12.8218 12.8223 10.2124 12.8223 6.99365C12.8223 3.77487 10.2129 1.16553 6.99414 1.16553C3.77536 1.16553 1.16602 3.77487 1.16602 6.99365C1.16602 10.2124 3.77536 12.8218 6.99414 12.8218Z" stroke="#4B5563" stroke-width="2" stroke-linecap="round" stroke-linejoin="round"/>
<path d="M5.29688 5.24538C5.4339 4.85587 5.70435 4.52742 6.06033 4.3182C6.41632 4.10899 6.83486 4.03251 7.24182 4.10232C7.64879 4.17212 8.01792 4.38371 8.28383 4.69959C8.54975 5.01548 8.69529 5.41528 8.69467 5.82819C8.69467 6.99382 6.94623 7.57663 6.94623 7.57663" stroke="#4B5563" stroke-width="2" stroke-linecap="round" stroke-linejoin="round"/>
<path d="M6.99414 9.90771H6.99997" stroke="#4B5563" stroke-width="2" stroke-linecap="round" stroke-linejoin="round"/>
</g>
<defs>
<clipPath id="clip0_187_1417">
<rect width="13.9875" height="13.9875" fill="white"/>
</clipPath>
</defs>
</svg>
