<svg width="20" height="21" viewBox="0 0 20 21" fill="none" xmlns="http://www.w3.org/2000/svg">
<g clip-path="url(#clip0_310_6198)">
<path d="M13.3186 17.9017V16.236C13.3186 15.3525 12.9676 14.5052 12.3429 13.8805C11.7181 13.2558 10.8708 12.9048 9.9873 12.9048H4.99043C4.10693 12.9048 3.25961 13.2558 2.63488 13.8805C2.01015 14.5052 1.65918 15.3525 1.65918 16.236V17.9017" stroke="#4B5563" stroke-width="2" stroke-linecap="round" stroke-linejoin="round"/>
<path d="M13.3186 3.01758C14.033 3.20277 14.6656 3.61992 15.1172 4.20356C15.5688 4.78719 15.8139 5.50426 15.8139 6.24223C15.8139 6.98019 15.5688 7.69727 15.1172 8.2809C14.6656 8.86453 14.033 9.28169 13.3186 9.46688" stroke="#4B5563" stroke-width="2" stroke-linecap="round" stroke-linejoin="round"/>
<path d="M18.3156 17.9015V16.2359C18.315 15.4978 18.0694 14.7808 17.6172 14.1975C17.1649 13.6141 16.5318 13.1975 15.8171 13.0129" stroke="#4B5563" stroke-width="2" stroke-linecap="round" stroke-linejoin="round"/>
<path d="M7.48896 9.57363C9.32876 9.57363 10.8202 8.08218 10.8202 6.24238C10.8202 4.40258 9.32876 2.91113 7.48896 2.91113C5.64917 2.91113 4.15771 4.40258 4.15771 6.24238C4.15771 8.08218 5.64917 9.57363 7.48896 9.57363Z" stroke="#4B5563" stroke-width="2" stroke-linecap="round" stroke-linejoin="round"/>
</g>
<defs>
<clipPath id="clip0_310_6198">
<rect width="19.9875" height="19.9875" fill="white" transform="translate(-0.00634766 0.412598)"/>
</clipPath>
</defs>
</svg>
