<svg width="17" height="17" viewBox="0 0 17 17" fill="none" xmlns="http://www.w3.org/2000/svg">
<g clip-path="url(#clip0_96_6676)">
<path d="M14.5995 7.39981C14.904 8.89401 14.687 10.4474 13.9847 11.801C13.2825 13.1546 12.1374 14.2265 10.7405 14.838C9.34359 15.4495 7.77925 15.5637 6.30836 15.1614C4.83748 14.7591 3.54896 13.8647 2.65768 12.6274C1.7664 11.3901 1.32624 9.88464 1.41061 8.36207C1.49497 6.8395 2.09875 5.39187 3.12126 4.26059C4.14378 3.12932 5.52322 2.38277 7.02954 2.14545C8.53586 1.90813 10.078 2.19439 11.3988 2.95648" stroke="#22C55E" stroke-width="2" stroke-linecap="round" stroke-linejoin="round"/>
<path d="M6.06641 8.06657L8.06641 10.0666L14.7331 3.3999" stroke="#22C55E" stroke-width="2" stroke-linecap="round" stroke-linejoin="round"/>
</g>
<defs>
<clipPath id="clip0_96_6676">
<rect width="16" height="16" fill="white" transform="translate(0.0664062 0.733154)"/>
</clipPath>
</defs>
</svg>
