<svg width="21" height="21" viewBox="0 0 21 21" fill="none" xmlns="http://www.w3.org/2000/svg">
<g clip-path="url(#clip0_87_4575)">
<path d="M16.8333 8.39909C16.8333 12.5599 12.2175 16.8933 10.6675 18.2316C10.5231 18.3402 10.3473 18.3989 10.1667 18.3989C9.986 18.3989 9.81023 18.3402 9.66583 18.2316C8.11583 16.8933 3.5 12.5599 3.5 8.39909C3.5 6.63098 4.20238 4.93529 5.45262 3.68504C6.70286 2.4348 8.39856 1.73242 10.1667 1.73242C11.9348 1.73242 13.6305 2.4348 14.8807 3.68504C16.131 4.93529 16.8333 6.63098 16.8333 8.39909Z" stroke="#9CA3AF" stroke-width="2" stroke-linecap="round" stroke-linejoin="round"/>
<path d="M10.1666 10.9004C11.5473 10.9004 12.6666 9.7811 12.6666 8.40039C12.6666 7.01968 11.5473 5.90039 10.1666 5.90039C8.78591 5.90039 7.66663 7.01968 7.66663 8.40039C7.66663 9.7811 8.78591 10.9004 10.1666 10.9004Z" stroke="#9CA3AF" stroke-width="2" stroke-linecap="round" stroke-linejoin="round"/>
</g>
<defs>
<clipPath id="clip0_87_4575">
<rect width="20" height="20" fill="white" transform="translate(0.166626 0.0664062)"/>
</clipPath>
</defs>
</svg>
