<svg width="21" height="20" viewBox="0 0 21 20" fill="none" xmlns="http://www.w3.org/2000/svg">
<path d="M16.7005 9.16699H5.03385C4.11338 9.16699 3.36719 9.91318 3.36719 10.8337V16.667C3.36719 17.5875 4.11338 18.3337 5.03385 18.3337H16.7005C17.621 18.3337 18.3672 17.5875 18.3672 16.667V10.8337C18.3672 9.91318 17.621 9.16699 16.7005 9.16699Z" stroke="#9CA3AF" stroke-width="2" stroke-linecap="round" stroke-linejoin="round"/>
<path d="M6.70117 9.16699V5.83366C6.70117 4.72859 7.14016 3.66878 7.92156 2.88738C8.70296 2.10598 9.76277 1.66699 10.8678 1.66699C11.9729 1.66699 13.0327 2.10598 13.8141 2.88738C14.5955 3.66878 15.0345 4.72859 15.0345 5.83366V9.16699" stroke="#9CA3AF" stroke-width="2" stroke-linecap="round" stroke-linejoin="round"/>
</svg>
