<svg width="25" height="24" viewBox="0 0 25 24" fill="none" xmlns="http://www.w3.org/2000/svg">
<path d="M11.2179 21C11.3934 21.304 11.6459 21.5565 11.9499 21.732C12.254 21.9075 12.5988 21.9999 12.9499 21.9999C13.301 21.9999 13.6458 21.9075 13.9499 21.732C14.2539 21.5565 14.5064 21.304 14.6819 21" stroke="#4B5563" stroke-width="2" stroke-linecap="round" stroke-linejoin="round"/>
<path d="M4.21195 15.326C4.08132 15.4692 3.99511 15.6472 3.96381 15.8385C3.93251 16.0298 3.95747 16.226 4.03566 16.4034C4.11385 16.5807 4.24189 16.7316 4.40421 16.8375C4.56653 16.9434 4.75613 16.9999 4.94995 17H20.95C21.1438 17.0001 21.3334 16.9438 21.4958 16.8381C21.6582 16.7324 21.7864 16.5817 21.8648 16.4045C21.9432 16.2273 21.9684 16.0311 21.9374 15.8398C21.9063 15.6485 21.8204 15.4703 21.69 15.327C20.36 13.956 18.95 12.499 18.95 8C18.95 6.4087 18.3178 4.88258 17.1926 3.75736C16.0674 2.63214 14.5413 2 12.95 2C11.3587 2 9.83253 2.63214 8.70731 3.75736C7.58209 4.88258 6.94995 6.4087 6.94995 8C6.94995 12.499 5.53895 13.956 4.21195 15.326Z" stroke="#4B5563" stroke-width="2" stroke-linecap="round" stroke-linejoin="round"/>
</svg>
