<svg width="21" height="20" viewBox="0 0 21 20" fill="none" xmlns="http://www.w3.org/2000/svg">
<g clip-path="url(#clip0_99_2914)">
<path d="M1.85287 10.2898C1.78342 10.1027 1.78342 9.89691 1.85287 9.70981C2.52929 8.06969 3.67747 6.66735 5.15184 5.68056C6.62622 4.69378 8.36041 4.16699 10.1345 4.16699C11.9087 4.16699 13.6428 4.69378 15.1172 5.68056C16.5916 6.66735 17.7398 8.06969 18.4162 9.70981C18.4857 9.89691 18.4857 10.1027 18.4162 10.2898C17.7398 11.9299 16.5916 13.3323 15.1172 14.3191C13.6428 15.3058 11.9087 15.8326 10.1345 15.8326C8.36041 15.8326 6.62622 15.3058 5.15184 14.3191C3.67747 13.3323 2.52929 11.9299 1.85287 10.2898Z" stroke="#9CA3AF" stroke-width="2" stroke-linecap="round" stroke-linejoin="round"/>
<path d="M10.1348 12.5C11.5155 12.5 12.6348 11.3807 12.6348 10C12.6348 8.61929 11.5155 7.5 10.1348 7.5C8.75405 7.5 7.63477 8.61929 7.63477 10C7.63477 11.3807 8.75405 12.5 10.1348 12.5Z" stroke="#9CA3AF" stroke-width="2" stroke-linecap="round" stroke-linejoin="round"/>
</g>
<defs>
<clipPath id="clip0_99_2914">
<rect width="20" height="20" fill="white" transform="translate(0.134766)"/>
</clipPath>
</defs>
</svg>
