<svg width="19" height="19" viewBox="0 0 19 19" fill="none" xmlns="http://www.w3.org/2000/svg">
<g clip-path="url(#clip0_99_2429)">
<path d="M7.81836 15.9502C7.95002 16.1782 8.13937 16.3675 8.36739 16.4992C8.59541 16.6308 8.85407 16.7001 9.11736 16.7001C9.38065 16.7001 9.63931 16.6308 9.86733 16.4992C10.0953 16.3675 10.2847 16.1782 10.4164 15.9502" stroke="#1F2937" stroke-width="2" stroke-linecap="round" stroke-linejoin="round"/>
<path d="M12.8675 12.9501H3.11746C2.97211 12.9501 2.82987 12.9079 2.70806 12.8286C2.58624 12.7493 2.49009 12.6364 2.43129 12.5034C2.37249 12.3705 2.35359 12.2234 2.37688 12.0799C2.40016 11.9364 2.46464 11.8028 2.56246 11.6953C3.55996 10.6671 4.61746 9.5743 4.61746 6.20005C4.61735 5.75741 4.68255 5.31717 4.81096 4.89355" stroke="#1F2937" stroke-width="2" stroke-linecap="round" stroke-linejoin="round"/>
<path d="M1.61719 1.7002L16.6172 16.7002" stroke="#1F2937" stroke-width="2" stroke-linecap="round" stroke-linejoin="round"/>
<path d="M6.61914 2.45787C7.29675 2.00538 8.08451 1.74537 8.89834 1.70557C9.71217 1.66577 10.5215 1.84768 11.2401 2.23189C11.9586 2.61611 12.5593 3.1882 12.9782 3.88712C13.397 4.58604 13.6182 5.38557 13.6181 6.20037C13.6181 8.21562 14.1956 9.69012 14.8984 10.7379" stroke="#1F2937" stroke-width="2" stroke-linecap="round" stroke-linejoin="round"/>
</g>
<defs>
<clipPath id="clip0_99_2429">
<rect width="18" height="18" fill="white" transform="translate(0.117188 0.200195)"/>
</clipPath>
</defs>
</svg>
