<svg width="21" height="21" viewBox="0 0 21 21" fill="none" xmlns="http://www.w3.org/2000/svg">
<g clip-path="url(#clip0_624_1128)">
<path d="M18.1365 5.86383C18.5771 5.42335 18.8246 4.82589 18.8247 4.20288C18.8248 3.57987 18.5774 2.98234 18.1369 2.54175C17.6964 2.10116 17.099 1.85359 16.4759 1.85352C15.8529 1.85344 15.2554 2.10085 14.8148 2.54133L3.69315 13.6655C3.49966 13.8584 3.35658 14.0959 3.27648 14.3572L2.17565 17.9838C2.15411 18.0559 2.15248 18.1325 2.17094 18.2054C2.1894 18.2783 2.22725 18.3449 2.28048 18.398C2.33371 18.4511 2.40033 18.4889 2.47328 18.5072C2.54623 18.5256 2.62278 18.5238 2.69482 18.5022L6.32232 17.4022C6.58329 17.3228 6.82079 17.1806 7.01398 16.988L18.1365 5.86383Z" stroke="#6B7280" stroke-width="2" stroke-linecap="round" stroke-linejoin="round"/>
<path d="M12.9922 4.354L16.3255 7.68734" stroke="#6B7280" stroke-width="2" stroke-linecap="round" stroke-linejoin="round"/>
</g>
<defs>
<clipPath id="clip0_624_1128">
<rect width="20" height="20" fill="white" transform="translate(0.492188 0.187256)"/>
</clipPath>
</defs>
</svg>
