<svg width="17" height="17" viewBox="0 0 17 17" fill="none" xmlns="http://www.w3.org/2000/svg">
<g clip-path="url(#clip0_624_1114)">
<path d="M10.6938 1.43335H4.6977C4.34431 1.43335 4.00539 1.57373 3.7555 1.82362C3.50562 2.07351 3.36523 2.41242 3.36523 2.76582V13.4255C3.36523 13.7789 3.50562 14.1178 3.7555 14.3677C4.00539 14.6176 4.34431 14.758 4.6977 14.758H12.6925C13.0459 14.758 13.3848 14.6176 13.6347 14.3677C13.8846 14.1178 14.025 13.7789 14.025 13.4255V4.76451L10.6938 1.43335Z" stroke="black" stroke-width="2" stroke-linecap="round" stroke-linejoin="round"/>
<path d="M10.0293 1.43335V4.09828C10.0293 4.45167 10.1697 4.79059 10.4196 5.04048C10.6695 5.29036 11.0084 5.43075 11.3618 5.43075H14.0267" stroke="black" stroke-width="2" stroke-linecap="round" stroke-linejoin="round"/>
</g>
<defs>
<clipPath id="clip0_624_1114">
<rect width="15.9896" height="15.9896" fill="white" transform="translate(0.701172 0.10083)"/>
</clipPath>
</defs>
</svg>
