<svg width="20" height="21" viewBox="0 0 20 21" fill="none" xmlns="http://www.w3.org/2000/svg">
<g clip-path="url(#clip0_310_5769)">
<path d="M13.3186 11.3141L17.6684 14.214C17.7311 14.2557 17.8039 14.2796 17.8792 14.2832C17.9544 14.2868 18.0292 14.2699 18.0956 14.2344C18.162 14.1988 18.2175 14.1459 18.2563 14.0813C18.295 14.0167 18.3154 13.9428 18.3155 13.8675V7.04177C18.3155 6.96851 18.2962 6.89653 18.2595 6.83311C18.2228 6.76969 18.17 6.71708 18.1065 6.68058C18.043 6.64409 17.9709 6.625 17.8977 6.62525C17.8244 6.6255 17.7525 6.64507 17.6892 6.682L13.3186 9.23207" stroke="#9333EA" stroke-width="2" stroke-linecap="round" stroke-linejoin="round"/>
<path d="M11.6529 5.48438H3.3248C2.40491 5.48438 1.65918 6.2301 1.65918 7.15V13.8125C1.65918 14.7324 2.40491 15.4781 3.3248 15.4781H11.6529C12.5728 15.4781 13.3186 14.7324 13.3186 13.8125V7.15C13.3186 6.2301 12.5728 5.48438 11.6529 5.48438Z" stroke="#9333EA" stroke-width="2" stroke-linecap="round" stroke-linejoin="round"/>
</g>
<defs>
<clipPath id="clip0_310_5769">
<rect width="19.9875" height="19.9875" fill="white" transform="translate(-0.00634766 0.487549)"/>
</clipPath>
</defs>
</svg>
