<svg width="16" height="16" viewBox="0 0 16 16" fill="none" xmlns="http://www.w3.org/2000/svg">
<g clip-path="url(#clip0_187_1012)">
<path d="M6.66406 8.66339C6.95025 9.04599 7.31538 9.36257 7.73468 9.59165C8.15398 9.82073 8.61764 9.95696 9.09421 9.99109C9.57079 10.0252 10.0491 9.95646 10.4968 9.78947C10.9445 9.62248 11.351 9.36116 11.6888 9.02325L13.688 7.02403C14.2949 6.3956 14.6308 5.55392 14.6232 4.68027C14.6156 3.80663 14.2652 2.97091 13.6474 2.35313C13.0296 1.73534 12.1939 1.38491 11.3202 1.37732C10.4466 1.36973 9.60492 1.70558 8.97649 2.31254L7.83027 3.45209" stroke="#9333EA" stroke-width="2" stroke-linecap="round" stroke-linejoin="round"/>
<path d="M9.33036 7.33036C9.04417 6.94775 8.67904 6.63118 8.25974 6.40209C7.84044 6.17301 7.37678 6.03678 6.90021 6.00265C6.42363 5.96852 5.94529 6.03728 5.49762 6.20428C5.04996 6.37127 4.64344 6.63258 4.30565 6.9705L2.30643 8.96972C1.69948 9.59814 1.36363 10.4398 1.37122 11.3135C1.37881 12.1871 1.72924 13.0228 2.34702 13.6406C2.96481 14.2584 3.80052 14.6088 4.67417 14.6164C5.54782 14.624 6.3895 14.2882 7.01793 13.6812L8.15748 12.5417" stroke="#9333EA" stroke-width="2" stroke-linecap="round" stroke-linejoin="round"/>
</g>
<defs>
<clipPath id="clip0_187_1012">
<rect width="15.9937" height="15.9937" fill="white"/>
</clipPath>
</defs>
</svg>
