<svg width="23" height="23" viewBox="0 0 23 23" fill="none" xmlns="http://www.w3.org/2000/svg">
<g clip-path="url(#clip0_307_4891)">
<path d="M9.47852 19.3838C9.63943 19.6625 9.87086 19.8939 10.1496 20.0548C10.4282 20.2157 10.7444 20.3004 11.0662 20.3004C11.388 20.3004 11.7041 20.2157 11.9828 20.0548C12.2615 19.8939 12.4929 19.6625 12.6538 19.3838" stroke="#C30218" stroke-width="2" stroke-linecap="round" stroke-linejoin="round"/>
<path d="M3.0559 14.1823C2.93615 14.3135 2.85713 14.4768 2.82844 14.6521C2.79975 14.8274 2.82263 15.0073 2.8943 15.1699C2.96597 15.3325 3.08334 15.4707 3.23214 15.5678C3.38093 15.6649 3.55473 15.7167 3.7324 15.7168H18.3991C18.5767 15.7169 18.7506 15.6653 18.8994 15.5684C19.0483 15.4715 19.1659 15.3334 19.2377 15.1709C19.3096 15.0085 19.3327 14.8286 19.3042 14.6533C19.2758 14.4779 19.197 14.3146 19.0774 14.1832C17.8582 12.9265 16.5657 11.5909 16.5657 7.4668C16.5657 6.00811 15.9863 4.60916 14.9548 3.57771C13.9234 2.54626 12.5244 1.9668 11.0657 1.9668C9.60705 1.9668 8.2081 2.54626 7.17665 3.57771C6.1452 4.60916 5.56574 6.00811 5.56574 7.4668C5.56574 11.5909 4.27232 12.9265 3.0559 14.1823Z" stroke="#C30218" stroke-width="2" stroke-linecap="round" stroke-linejoin="round"/>
</g>
<defs>
<clipPath id="clip0_307_4891">
<rect width="22" height="22" fill="white" transform="translate(0.0664062 0.133789)"/>
</clipPath>
</defs>
</svg>
