<svg width="23" height="23" viewBox="0 0 23 23" fill="none" xmlns="http://www.w3.org/2000/svg">
<path d="M17.4831 10.3496H4.64974C3.63722 10.3496 2.81641 11.1704 2.81641 12.1829V18.5996C2.81641 19.6121 3.63722 20.4329 4.64974 20.4329H17.4831C18.4956 20.4329 19.3164 19.6121 19.3164 18.5996V12.1829C19.3164 11.1704 18.4956 10.3496 17.4831 10.3496Z" stroke="#C30218" stroke-width="2" stroke-linecap="round" stroke-linejoin="round"/>
<path d="M6.48242 10.3496V6.68294C6.48242 5.46737 6.96531 4.30158 7.82485 3.44204C8.68439 2.58249 9.85018 2.09961 11.0658 2.09961C12.2813 2.09961 13.4471 2.58249 14.3067 3.44204C15.1662 4.30158 15.6491 5.46737 15.6491 6.68294V10.3496" stroke="#C30218" stroke-width="2" stroke-linecap="round" stroke-linejoin="round"/>
</svg>
