<svg width="23" height="23" viewBox="0 0 23 23" fill="none" xmlns="http://www.w3.org/2000/svg">
<g clip-path="url(#clip0_307_4905)">
<path d="M11.0671 20.3665C16.1297 20.3665 20.2337 16.2625 20.2337 11.1999C20.2337 6.13726 16.1297 2.0332 11.0671 2.0332C6.00445 2.0332 1.90039 6.13726 1.90039 11.1999C1.90039 16.2625 6.00445 20.3665 11.0671 20.3665Z" stroke="#C30218" stroke-width="2" stroke-linecap="round" stroke-linejoin="round"/>
<path d="M11.0671 2.0332C8.71327 4.50468 7.40039 7.78688 7.40039 11.1999C7.40039 14.6129 8.71327 17.8951 11.0671 20.3665C13.4208 17.8951 14.7337 14.6129 14.7337 11.1999C14.7337 7.78688 13.4208 4.50468 11.0671 2.0332Z" stroke="#C30218" stroke-width="2" stroke-linecap="round" stroke-linejoin="round"/>
<path d="M1.90039 11.2002H20.2337" stroke="#C30218" stroke-width="2" stroke-linecap="round" stroke-linejoin="round"/>
</g>
<defs>
<clipPath id="clip0_307_4905">
<rect width="22" height="22" fill="white" transform="translate(0.0664062 0.200195)"/>
</clipPath>
</defs>
</svg>
