<svg width="20" height="20" viewBox="0 0 20 20" fill="none" xmlns="http://www.w3.org/2000/svg">
<path d="M4.99609 2.49805V12.4918" stroke="#C30218" stroke-width="2" stroke-linecap="round" stroke-linejoin="round"/>
<path d="M14.9906 7.49492C16.3705 7.49492 17.4891 6.37633 17.4891 4.99648C17.4891 3.61664 16.3705 2.49805 14.9906 2.49805C13.6108 2.49805 12.4922 3.61664 12.4922 4.99648C12.4922 6.37633 13.6108 7.49492 14.9906 7.49492Z" stroke="#C30218" stroke-width="2" stroke-linecap="round" stroke-linejoin="round"/>
<path d="M4.99648 17.4891C6.37633 17.4891 7.49492 16.3705 7.49492 14.9906C7.49492 13.6108 6.37633 12.4922 4.99648 12.4922C3.61664 12.4922 2.49805 13.6108 2.49805 14.9906C2.49805 16.3705 3.61664 17.4891 4.99648 17.4891Z" stroke="#C30218" stroke-width="2" stroke-linecap="round" stroke-linejoin="round"/>
<path d="M14.9914 7.49512C14.9914 9.483 14.2017 11.3895 12.7961 12.7951C11.3904 14.2007 9.48397 14.9904 7.49609 14.9904" stroke="#C30218" stroke-width="2" stroke-linecap="round" stroke-linejoin="round"/>
</svg>
