<svg width="21" height="21" viewBox="0 0 21 21" fill="none" xmlns="http://www.w3.org/2000/svg">
<g clip-path="url(#clip0_100_5143)">
<path d="M18.8434 15.7997L12.1767 4.133C12.0314 3.8765 11.8206 3.66316 11.5658 3.51472C11.3111 3.36629 11.0215 3.28809 10.7267 3.28809C10.4319 3.28809 10.1423 3.36629 9.88761 3.51472C9.63288 3.66316 9.42208 3.8765 9.27672 4.133L2.61005 15.7997C2.46312 16.0541 2.38607 16.3429 2.38672 16.6368C2.38737 16.9306 2.4657 17.219 2.61375 17.4729C2.76181 17.7267 2.97434 17.9368 3.22979 18.082C3.48525 18.2272 3.77455 18.3023 4.06838 18.2997H17.4017C17.6941 18.2994 17.9813 18.2221 18.2344 18.0757C18.4876 17.9293 18.6977 17.7189 18.8438 17.4656C18.9899 17.2123 19.0667 16.925 19.0667 16.6326C19.0666 16.3402 18.9896 16.0529 18.8434 15.7997Z" stroke="#EF4444" stroke-width="2" stroke-linecap="round" stroke-linejoin="round"/>
<path d="M10.7344 8.2998V11.6331" stroke="#EF4444" stroke-width="2" stroke-linecap="round" stroke-linejoin="round"/>
<path d="M10.7344 14.9663H10.7427" stroke="#EF4444" stroke-width="2" stroke-linecap="round" stroke-linejoin="round"/>
</g>
<defs>
<clipPath id="clip0_100_5143">
<rect width="20" height="20" fill="white" transform="translate(0.734375 0.799805)"/>
</clipPath>
</defs>
</svg>
