<svg width="16" height="16" viewBox="0 0 16 16" fill="none" xmlns="http://www.w3.org/2000/svg">
<path d="M5.49687 7.99531L7.1625 9.66094L10.4937 6.32969M15.4906 7.99531C15.4906 8.97961 15.2968 9.95427 14.9201 10.8636C14.5434 11.773 13.9913 12.5993 13.2953 13.2953C12.5993 13.9913 11.773 14.5434 10.8636 14.9201C9.95427 15.2968 8.97961 15.4906 7.99531 15.4906C7.01101 15.4906 6.03635 15.2968 5.12698 14.9201C4.21761 14.5434 3.39133 13.9913 2.69533 13.2953C1.99932 12.5993 1.44722 11.773 1.07055 10.8636C0.693872 9.95427 0.5 8.97961 0.5 7.99531C0.5 6.00743 1.28968 4.10097 2.69533 2.69533C4.10097 1.28968 6.00743 0.5 7.99531 0.5C9.98319 0.5 11.8897 1.28968 13.2953 2.69533C14.7009 4.10097 15.4906 6.00743 15.4906 7.99531Z" stroke="#C30218" stroke-linecap="round" stroke-linejoin="round"/>
</svg>
