<svg width="20" height="20" viewBox="0 0 20 20" fill="none" xmlns="http://www.w3.org/2000/svg">
<path d="M11.5199 13.7984C11.6919 13.8774 11.8856 13.8955 12.0693 13.8496C12.2529 13.8037 12.4154 13.6967 12.5301 13.5461L12.8257 13.1588C12.9808 12.952 13.182 12.7841 13.4133 12.6684C13.6446 12.5528 13.8996 12.4926 14.1582 12.4926H16.6566C17.0984 12.4926 17.522 12.6681 17.8344 12.9804C18.1468 13.2928 18.3223 13.7165 18.3223 14.1582V16.6566C18.3223 17.0984 18.1468 17.522 17.8344 17.8344C17.522 18.1468 17.0984 18.3223 16.6566 18.3223C12.6809 18.3223 8.86795 16.7429 6.05667 13.9316C3.24538 11.1203 1.66602 7.3074 1.66602 3.33164C1.66602 2.88989 1.8415 2.46623 2.15387 2.15387C2.46623 1.8415 2.88989 1.66602 3.33164 1.66602H5.83008C6.27183 1.66602 6.69549 1.8415 7.00785 2.15387C7.32022 2.46623 7.4957 2.88989 7.4957 3.33164V5.83008C7.4957 6.08866 7.4355 6.34369 7.31986 6.57497C7.20422 6.80625 7.03632 7.00743 6.82945 7.16258L6.4397 7.45489C6.28681 7.57164 6.17904 7.73771 6.13471 7.92489C6.09038 8.11208 6.11222 8.30884 6.19652 8.48175C7.3347 10.7935 9.20665 12.6631 11.5199 13.7984Z" stroke="#C30218" stroke-width="2" stroke-linecap="round" stroke-linejoin="round"/>
</svg>
