<svg width="19" height="19" viewBox="0 0 19 19" fill="none" xmlns="http://www.w3.org/2000/svg">
<g clip-path="url(#clip0_243_10402)">
<path d="M11.8901 17.2517C11.9186 17.3227 11.9682 17.3833 12.0321 17.4254C12.096 17.4674 12.1713 17.4889 12.2478 17.487C12.3243 17.485 12.3983 17.4597 12.46 17.4144C12.5217 17.3692 12.5681 17.3061 12.5929 17.2337L17.4679 2.98372C17.4919 2.91727 17.4965 2.84535 17.4811 2.77639C17.4657 2.70743 17.431 2.64427 17.3811 2.59431C17.3311 2.54435 17.2679 2.50965 17.199 2.49427C17.13 2.47889 17.0581 2.48347 16.9916 2.50747L2.74164 7.38248C2.66926 7.4073 2.6062 7.45366 2.56094 7.51535C2.51567 7.57704 2.49036 7.6511 2.4884 7.72759C2.48645 7.80408 2.50793 7.87934 2.54998 7.94327C2.59203 8.0072 2.65262 8.05673 2.72364 8.08522L8.67114 10.4702C8.85915 10.5455 9.02997 10.6581 9.17331 10.8011C9.31664 10.9442 9.42952 11.1148 9.50514 11.3027L11.8901 17.2517Z" stroke="white" stroke-width="2" stroke-linecap="round" stroke-linejoin="round"/>
<path d="M17.3788 2.59766L9.17383 10.8019" stroke="white" stroke-width="2" stroke-linecap="round" stroke-linejoin="round"/>
</g>
<defs>
<clipPath id="clip0_243_10402">
<rect width="18" height="18" fill="white" transform="translate(0.988281 0.987305)"/>
</clipPath>
</defs>
</svg>
