<svg width="16" height="20" viewBox="0 0 16 20" fill="none" xmlns="http://www.w3.org/2000/svg">
<path d="M14.8021 10.8995C14.8021 15.0661 11.8854 17.1495 8.41875 18.3578C8.23722 18.4193 8.04003 18.4164 7.86042 18.3495C4.38542 17.1495 1.46875 15.0661 1.46875 10.8995V5.06613C1.46875 4.84512 1.55655 4.63315 1.71283 4.47687C1.86911 4.32059 2.08107 4.2328 2.30208 4.2328C3.96875 4.2328 6.05208 3.2328 7.50208 1.96613C7.67863 1.8153 7.90321 1.73242 8.13542 1.73242C8.36762 1.73242 8.5922 1.8153 8.76875 1.96613C10.2271 3.24113 12.3021 4.2328 13.9687 4.2328C14.1898 4.2328 14.4017 4.32059 14.558 4.47687C14.7143 4.63315 14.8021 4.84512 14.8021 5.06613V10.8995Z" stroke="#9CA3AF" stroke-width="2" stroke-linecap="round" stroke-linejoin="round"/>
</svg>
