<svg width="16" height="16" viewBox="0 0 16 16" fill="none" xmlns="http://www.w3.org/2000/svg">
<g clip-path="url(#clip0_411_4624)">
<path d="M9.21774 11.0412C9.35537 11.1044 9.51043 11.1189 9.65737 11.0822C9.8043 11.0455 9.93435 10.9598 10.0261 10.8393L10.2627 10.5294C10.3868 10.3639 10.5478 10.2295 10.7329 10.137C10.9179 10.0445 11.122 9.99629 11.3289 9.99629H13.3281C13.6816 9.99629 14.0206 10.1367 14.2706 10.3867C14.5205 10.6366 14.6609 10.9756 14.6609 11.3291V13.3283C14.6609 13.6818 14.5205 14.0208 14.2706 14.2708C14.0206 14.5207 13.6816 14.6611 13.3281 14.6611C10.1468 14.6611 7.09573 13.3973 4.84617 11.1478C2.59661 8.89823 1.33282 5.84717 1.33282 2.66582C1.33282 2.31234 1.47325 1.97333 1.7232 1.72338C1.97315 1.47343 2.31215 1.33301 2.66564 1.33301H4.66486C5.01834 1.33301 5.35735 1.47343 5.6073 1.72338C5.85725 1.97333 5.99767 2.31234 5.99767 2.66582V4.66504C5.99767 4.87195 5.94949 5.07602 5.85696 5.26109C5.76443 5.44616 5.63007 5.60714 5.46454 5.73129L5.15267 5.9652C5.03032 6.05861 4.94409 6.1915 4.90862 6.34128C4.87315 6.49107 4.89062 6.64851 4.95807 6.78688C5.86884 8.63673 7.36675 10.1328 9.21774 11.0412Z" stroke="white" stroke-width="2" stroke-linecap="round" stroke-linejoin="round"/>
</g>
<defs>
<clipPath id="clip0_411_4624">
<rect width="15.9937" height="15.9937" fill="white"/>
</clipPath>
</defs>
</svg>
