<svg width="16" height="16" viewBox="0 0 16 16" fill="none" xmlns="http://www.w3.org/2000/svg">
<g clip-path="url(#clip0_167_596)">
<path d="M14.116 4.54224C14.4685 4.18985 14.6665 3.71188 14.6666 3.21347C14.6666 2.71506 14.4687 2.23704 14.1163 1.88457C13.7639 1.5321 13.286 1.33405 12.7876 1.33398C12.2892 1.33392 11.8111 1.53185 11.4587 1.88424L2.56133 10.7836C2.40654 10.9379 2.29207 11.1279 2.228 11.3369L1.34733 14.2382C1.3301 14.2959 1.3288 14.3571 1.34356 14.4155C1.35833 14.4738 1.38861 14.5271 1.43119 14.5696C1.47378 14.6121 1.52708 14.6423 1.58544 14.657C1.64379 14.6716 1.70504 14.6702 1.76266 14.6529L4.66466 13.7729C4.87344 13.7094 5.06345 13.5956 5.218 13.4416L14.116 4.54224Z" stroke="white" stroke-width="2" stroke-linecap="round" stroke-linejoin="round"/>
<path d="M10 3.33398L12.6667 6.00065" stroke="white" stroke-width="2" stroke-linecap="round" stroke-linejoin="round"/>
</g>
<defs>
<clipPath id="clip0_167_596">
<rect width="16" height="16" fill="white"/>
</clipPath>
</defs>
</svg>
