<svg width="16" height="16" viewBox="0 0 16 16" fill="none" xmlns="http://www.w3.org/2000/svg">
<path d="M10.6667 13.3334V2.66671C10.6667 2.31309 10.5262 1.97395 10.2762 1.7239C10.0261 1.47385 9.687 1.33337 9.33337 1.33337H6.66671C6.31309 1.33337 5.97395 1.47385 5.7239 1.7239C5.47385 1.97395 5.33337 2.31309 5.33337 2.66671V13.3334" stroke="white" stroke-width="2" stroke-linecap="round" stroke-linejoin="round"/>
<path d="M13.3334 4H2.66671C1.93033 4 1.33337 4.59695 1.33337 5.33333V12C1.33337 12.7364 1.93033 13.3333 2.66671 13.3333H13.3334C14.0698 13.3333 14.6667 12.7364 14.6667 12V5.33333C14.6667 4.59695 14.0698 4 13.3334 4Z" stroke="white" stroke-width="2" stroke-linecap="round" stroke-linejoin="round"/>
</svg>
