<svg width="16" height="16" viewBox="0 0 16 16" fill="none" xmlns="http://www.w3.org/2000/svg">
<g clip-path="url(#clip0_196_1736)">
<path d="M6.66499 13.3279C6.66494 13.4518 6.69939 13.5732 6.76448 13.6785C6.82957 13.7839 6.92274 13.869 7.03352 13.9244L8.36633 14.5908C8.46795 14.6416 8.58087 14.6655 8.69436 14.6604C8.80785 14.6552 8.91814 14.6212 9.01476 14.5614C9.11138 14.5016 9.19112 14.4182 9.2464 14.3189C9.30168 14.2197 9.33067 14.1079 9.33062 13.9943V9.32949C9.33077 8.99921 9.45355 8.68075 9.67515 8.43584L14.4886 3.11192C14.5749 3.01633 14.6316 2.89779 14.6519 2.77064C14.6723 2.64349 14.6553 2.51318 14.6032 2.39545C14.551 2.27773 14.4658 2.17764 14.358 2.10728C14.2501 2.03693 14.1242 1.99933 13.9955 1.99902H2.00015C1.87127 1.99907 1.74517 2.03649 1.63713 2.10674C1.52908 2.17699 1.44372 2.27707 1.39139 2.39484C1.33906 2.51262 1.32201 2.64304 1.34229 2.77032C1.36257 2.89759 1.41933 3.01625 1.50568 3.11192L6.32046 8.43584C6.54207 8.68075 6.66484 8.99921 6.66499 9.32949V13.3279Z" stroke="white" stroke-width="2" stroke-linecap="round" stroke-linejoin="round"/>
</g>
<defs>
<clipPath id="clip0_196_1736">
<rect width="15.9937" height="15.9937" fill="white"/>
</clipPath>
</defs>
</svg>
