<svg width="16" height="16" viewBox="0 0 16 16" fill="none" xmlns="http://www.w3.org/2000/svg">
<g clip-path="url(#clip0_201_7330)">
<path d="M14.4805 11.9956L9.14925 2.6659C9.033 2.46078 8.86443 2.29017 8.66072 2.17147C8.45702 2.05277 8.22547 1.99023 7.9897 1.99023C7.75394 1.99023 7.52239 2.05277 7.31868 2.17147C7.11498 2.29017 6.9464 2.46078 6.83016 2.6659L1.49891 11.9956C1.38141 12.1991 1.3198 12.43 1.32032 12.665C1.32084 12.9 1.38347 13.1306 1.50187 13.3336C1.62027 13.5366 1.79022 13.7046 1.99451 13.8208C2.19879 13.9369 2.43015 13.9969 2.66512 13.9948H13.3276C13.5615 13.9946 13.7911 13.9328 13.9935 13.8157C14.196 13.6987 14.364 13.5304 14.4808 13.3278C14.5977 13.1252 14.6591 12.8955 14.6591 12.6617C14.659 12.4278 14.5974 12.1981 14.4805 11.9956Z" stroke="#CA8A04" stroke-width="2" stroke-linecap="round" stroke-linejoin="round"/>
<path d="M7.99609 5.99805V8.66367" stroke="#CA8A04" stroke-width="2" stroke-linecap="round" stroke-linejoin="round"/>
<path d="M7.99609 11.3291H8.00276" stroke="#CA8A04" stroke-width="2" stroke-linecap="round" stroke-linejoin="round"/>
</g>
<defs>
<clipPath id="clip0_201_7330">
<rect width="15.9937" height="15.9937" fill="white"/>
</clipPath>
</defs>
</svg>
