<svg width="20" height="20" viewBox="0 0 20 20" fill="none" xmlns="http://www.w3.org/2000/svg">
<g clip-path="url(#clip0_187_816)">
<path d="M12.4918 1.66553H7.49492C7.03497 1.66553 6.66211 2.03839 6.66211 2.49834V4.16396C6.66211 4.62391 7.03497 4.99678 7.49492 4.99678H12.4918C12.9517 4.99678 13.3246 4.62391 13.3246 4.16396V2.49834C13.3246 2.03839 12.9517 1.66553 12.4918 1.66553Z" stroke="#4B5563" stroke-width="2" stroke-linecap="round" stroke-linejoin="round"/>
<path d="M13.3258 3.3313H14.9914C15.4332 3.3313 15.8568 3.50678 16.1692 3.81915C16.4815 4.13151 16.657 4.55517 16.657 4.99692V16.6563C16.657 17.098 16.4815 17.5217 16.1692 17.8341C15.8568 18.1464 15.4332 18.3219 14.9914 18.3219H4.99766C4.5559 18.3219 4.13225 18.1464 3.81988 17.8341C3.50752 17.5217 3.33203 17.098 3.33203 16.6563V4.99692C3.33203 4.55517 3.50752 4.13151 3.81988 3.81915C4.13225 3.50678 4.5559 3.3313 4.99766 3.3313H6.66328" stroke="#4B5563" stroke-width="2" stroke-linecap="round" stroke-linejoin="round"/>
<path d="M9.99414 9.16089H13.3254" stroke="#4B5563" stroke-width="2" stroke-linecap="round" stroke-linejoin="round"/>
<path d="M9.99414 13.325H13.3254" stroke="#4B5563" stroke-width="2" stroke-linecap="round" stroke-linejoin="round"/>
<path d="M6.66211 9.16089H6.67044" stroke="#4B5563" stroke-width="2" stroke-linecap="round" stroke-linejoin="round"/>
<path d="M6.66211 13.325H6.67044" stroke="#4B5563" stroke-width="2" stroke-linecap="round" stroke-linejoin="round"/>
</g>
<defs>
<clipPath id="clip0_187_816">
<rect width="19.9875" height="19.9875" fill="white"/>
</clipPath>
</defs>
</svg>
