<svg width="20" height="20" viewBox="0 0 20 20" fill="none" xmlns="http://www.w3.org/2000/svg">
<path d="M4.99609 2.49854V12.4923" stroke="#4B5563" stroke-width="2" stroke-linecap="round" stroke-linejoin="round"/>
<path d="M14.9906 7.49541C16.3705 7.49541 17.4891 6.37682 17.4891 4.99697C17.4891 3.61712 16.3705 2.49854 14.9906 2.49854C13.6108 2.49854 12.4922 3.61712 12.4922 4.99697C12.4922 6.37682 13.6108 7.49541 14.9906 7.49541Z" stroke="#4B5563" stroke-width="2" stroke-linecap="round" stroke-linejoin="round"/>
<path d="M4.99648 17.4891C6.37633 17.4891 7.49492 16.3705 7.49492 14.9906C7.49492 13.6108 6.37633 12.4922 4.99648 12.4922C3.61664 12.4922 2.49805 13.6108 2.49805 14.9906C2.49805 16.3705 3.61664 17.4891 4.99648 17.4891Z" stroke="#4B5563" stroke-width="2" stroke-linecap="round" stroke-linejoin="round"/>
<path d="M14.9914 7.49536C14.9914 9.48324 14.2017 11.3897 12.7961 12.7953C11.3904 14.201 9.48397 14.9907 7.49609 14.9907" stroke="#4B5563" stroke-width="2" stroke-linecap="round" stroke-linejoin="round"/>
</svg>
