<svg width="20" height="20" viewBox="0 0 20 20" fill="none" xmlns="http://www.w3.org/2000/svg">
<path d="M7.49492 2.49854H3.33086C2.87091 2.49854 2.49805 2.8714 2.49805 3.33135V9.16104C2.49805 9.62098 2.87091 9.99385 3.33086 9.99385H7.49492C7.95487 9.99385 8.32773 9.62098 8.32773 9.16104V3.33135C8.32773 2.8714 7.95487 2.49854 7.49492 2.49854Z" stroke="#1F2937" stroke-width="2" stroke-linecap="round" stroke-linejoin="round"/>
<path d="M16.657 2.49854H12.493C12.033 2.49854 11.6602 2.8714 11.6602 3.33135V5.82978C11.6602 6.28973 12.033 6.6626 12.493 6.6626H16.657C17.117 6.6626 17.4898 6.28973 17.4898 5.82978V3.33135C17.4898 2.8714 17.117 2.49854 16.657 2.49854Z" stroke="#1F2937" stroke-width="2" stroke-linecap="round" stroke-linejoin="round"/>
<path d="M16.657 9.99365H12.493C12.033 9.99365 11.6602 10.3665 11.6602 10.8265V16.6562C11.6602 17.1161 12.033 17.489 12.493 17.489H16.657C17.117 17.489 17.4898 17.1161 17.4898 16.6562V10.8265C17.4898 10.3665 17.117 9.99365 16.657 9.99365Z" stroke="#1F2937" stroke-width="2" stroke-linecap="round" stroke-linejoin="round"/>
<path d="M7.49492 13.325H3.33086C2.87091 13.325 2.49805 13.6978 2.49805 14.1578V16.6562C2.49805 17.1162 2.87091 17.489 3.33086 17.489H7.49492C7.95487 17.489 8.32773 17.1162 8.32773 16.6562V14.1578C8.32773 13.6978 7.95487 13.325 7.49492 13.325Z" stroke="#1F2937" stroke-width="2" stroke-linecap="round" stroke-linejoin="round"/>
</svg>
