<svg width="20" height="20" viewBox="0 0 20 20" fill="none" xmlns="http://www.w3.org/2000/svg">
<g clip-path="url(#clip0_187_801)">
<path d="M8.32812 10.8266C8.68578 11.3047 9.14208 11.7003 9.66608 11.9866C10.1901 12.2729 10.7695 12.4431 11.3651 12.4858C11.9607 12.5284 12.5585 12.4425 13.1179 12.2338C13.6774 12.0251 14.1854 11.6986 14.6075 11.2763L17.106 8.77783C17.8645 7.99248 18.2842 6.94063 18.2747 5.84883C18.2652 4.75702 17.8273 3.71262 17.0552 2.94057C16.2832 2.16852 15.2388 1.73059 14.147 1.7211C13.0552 1.71162 12.0033 2.13133 11.218 2.88985L9.78555 4.31396" stroke="#4B5563" stroke-width="2" stroke-linecap="round" stroke-linejoin="round"/>
<path d="M11.6596 9.16085C11.302 8.6827 10.8457 8.28707 10.3217 8.00079C9.79768 7.7145 9.21824 7.54426 8.62266 7.50161C8.02708 7.45895 7.42929 7.54488 6.86984 7.75357C6.31039 7.96227 5.80237 8.28883 5.38023 8.71113L2.88179 11.2096C2.12327 11.9949 1.70356 13.0468 1.71305 14.1386C1.72254 15.2304 2.16047 16.2748 2.93252 17.0468C3.70457 17.8189 4.74897 18.2568 5.84077 18.2663C6.93257 18.2758 7.98442 17.8561 8.76978 17.0975L10.1939 15.6734" stroke="#4B5563" stroke-width="2" stroke-linecap="round" stroke-linejoin="round"/>
</g>
<defs>
<clipPath id="clip0_187_801">
<rect width="19.9875" height="19.9875" fill="white"/>
</clipPath>
</defs>
</svg>
