<svg width="20" height="20" viewBox="0 0 20 20" fill="none" xmlns="http://www.w3.org/2000/svg">
<g clip-path="url(#clip0_187_869)">
<path d="M9.99336 6.6624C14.1329 6.6624 17.4887 5.54381 17.4887 4.16396C17.4887 2.78412 14.1329 1.66553 9.99336 1.66553C5.85381 1.66553 2.49805 2.78412 2.49805 4.16396C2.49805 5.54381 5.85381 6.6624 9.99336 6.6624Z" stroke="#4B5563" stroke-width="2" stroke-linecap="round" stroke-linejoin="round"/>
<path d="M2.49805 4.16406V15.8234C2.49805 16.4861 3.28773 17.1216 4.69337 17.5901C6.09902 18.0586 8.00548 18.3219 9.99336 18.3219C11.9812 18.3219 13.8877 18.0586 15.2933 17.5901C16.699 17.1216 17.4887 16.4861 17.4887 15.8234V4.16406" stroke="#4B5563" stroke-width="2" stroke-linecap="round" stroke-linejoin="round"/>
<path d="M2.49805 9.99365C2.49805 10.6563 3.28773 11.2918 4.69337 11.7603C6.09902 12.2289 8.00548 12.4921 9.99336 12.4921C11.9812 12.4921 13.8877 12.2289 15.2933 11.7603C16.699 11.2918 17.4887 10.6563 17.4887 9.99365" stroke="#4B5563" stroke-width="2" stroke-linecap="round" stroke-linejoin="round"/>
</g>
<defs>
<clipPath id="clip0_187_869">
<rect width="19.9875" height="19.9875" fill="white"/>
</clipPath>
</defs>
</svg>
