<svg width="16" height="16" viewBox="0 0 16 16" fill="none" xmlns="http://www.w3.org/2000/svg">
<path d="M7.99766 1.99927H3.33281C2.97933 1.99927 2.64032 2.13969 2.39037 2.38964C2.14042 2.63959 2 2.9786 2 3.33208V12.6618C2 13.0153 2.14042 13.3543 2.39037 13.6042C2.64032 13.8542 2.97933 13.9946 3.33281 13.9946H12.6625C13.016 13.9946 13.355 13.8542 13.6049 13.6042C13.8549 13.3543 13.9953 13.0153 13.9953 12.6618V7.99692" stroke="#C30218" stroke-width="2" stroke-linecap="round" stroke-linejoin="round"/>
<path d="M12.2448 1.74926C12.5099 1.48414 12.8694 1.33521 13.2444 1.33521C13.6193 1.33521 13.9789 1.48414 14.244 1.74926C14.5091 2.01437 14.658 2.37394 14.658 2.74887C14.658 3.12379 14.5091 3.48336 14.244 3.74848L8.23765 9.75546C8.07942 9.91356 7.88393 10.0293 7.66921 10.092L5.75462 10.6518C5.69728 10.6685 5.6365 10.6695 5.57863 10.6547C5.52077 10.6399 5.46796 10.6098 5.42572 10.5675C5.38348 10.5253 5.35337 10.4725 5.33855 10.4146C5.32373 10.3567 5.32473 10.2959 5.34145 10.2386L5.90123 8.32402C5.96423 8.10947 6.08019 7.91422 6.23844 7.75624L12.2448 1.74926Z" stroke="#C30218" stroke-width="2" stroke-linecap="round" stroke-linejoin="round"/>
</svg>
