<svg width="20" height="20" viewBox="0 0 20 20" fill="none" xmlns="http://www.w3.org/2000/svg">
<g clip-path="url(#clip0_187_828)">
<path d="M9.99414 18.3218C14.5936 18.3218 18.3223 14.5931 18.3223 9.99365C18.3223 5.39416 14.5936 1.66553 9.99414 1.66553C5.39464 1.66553 1.66602 5.39416 1.66602 9.99365C1.66602 14.5931 5.39464 18.3218 9.99414 18.3218Z" stroke="#4B5563" stroke-width="2" stroke-linecap="round" stroke-linejoin="round"/>
<path d="M4.10547 4.10571L7.63659 7.63684" stroke="#4B5563" stroke-width="2" stroke-linecap="round" stroke-linejoin="round"/>
<path d="M12.3516 7.63684L15.8827 4.10571" stroke="#4B5563" stroke-width="2" stroke-linecap="round" stroke-linejoin="round"/>
<path d="M12.3516 12.3506L15.8827 15.8817" stroke="#4B5563" stroke-width="2" stroke-linecap="round" stroke-linejoin="round"/>
<path d="M7.63659 12.3506L4.10547 15.8817" stroke="#4B5563" stroke-width="2" stroke-linecap="round" stroke-linejoin="round"/>
<path d="M9.99336 13.3251C11.8332 13.3251 13.3246 11.8336 13.3246 9.99385C13.3246 8.15405 11.8332 6.6626 9.99336 6.6626C8.15356 6.6626 6.66211 8.15405 6.66211 9.99385C6.66211 11.8336 8.15356 13.3251 9.99336 13.3251Z" stroke="#4B5563" stroke-width="2" stroke-linecap="round" stroke-linejoin="round"/>
</g>
<defs>
<clipPath id="clip0_187_828">
<rect width="19.9875" height="19.9875" fill="white"/>
</clipPath>
</defs>
</svg>
