<svg width="20" height="20" viewBox="0 0 20 20" fill="none" xmlns="http://www.w3.org/2000/svg">
<g clip-path="url(#clip0_187_790)">
<path d="M13.3254 17.4891V15.8234C13.3254 14.9399 12.9744 14.0926 12.3497 13.4679C11.725 12.8432 10.8776 12.4922 9.99414 12.4922H4.99727C4.11376 12.4922 3.26645 12.8432 2.64172 13.4679C2.01699 14.0926 1.66602 14.9399 1.66602 15.8234V17.4891" stroke="#4B5563" stroke-width="2" stroke-linecap="round" stroke-linejoin="round"/>
<path d="M13.3242 2.60498C14.0386 2.79017 14.6712 3.20732 15.1228 3.79096C15.5744 4.37459 15.8195 5.09167 15.8195 5.82963C15.8195 6.56759 15.5744 7.28467 15.1228 7.8683C14.6712 8.45194 14.0386 8.86909 13.3242 9.05428" stroke="#4B5563" stroke-width="2" stroke-linecap="round" stroke-linejoin="round"/>
<path d="M18.3227 17.489V15.8233C18.3221 15.0852 18.0764 14.3682 17.6242 13.7849C17.172 13.2015 16.5389 12.7849 15.8242 12.6003" stroke="#4B5563" stroke-width="2" stroke-linecap="round" stroke-linejoin="round"/>
<path d="M7.49531 9.16103C9.33511 9.16103 10.8266 7.66958 10.8266 5.82978C10.8266 3.98999 9.33511 2.49854 7.49531 2.49854C5.65551 2.49854 4.16406 3.98999 4.16406 5.82978C4.16406 7.66958 5.65551 9.16103 7.49531 9.16103Z" stroke="#4B5563" stroke-width="2" stroke-linecap="round" stroke-linejoin="round"/>
</g>
<defs>
<clipPath id="clip0_187_790">
<rect width="19.9875" height="19.9875" fill="white"/>
</clipPath>
</defs>
</svg>
